<svg width="109" height="10" viewBox="0 0 109 10" fill="none" xmlns="http://www.w3.org/2000/svg">
<path d="M3.08984 9H0.396662V0.272727H3.20916C4.05575 0.272727 4.78018 0.447443 5.38246 0.796875C5.98473 1.14347 6.44638 1.64205 6.7674 2.29261C7.08842 2.94034 7.24893 3.71591 7.24893 4.61932C7.24893 5.52841 7.087 6.31108 6.76314 6.96733C6.43928 7.62074 5.96768 8.12358 5.34837 8.47585C4.72905 8.82528 3.97621 9 3.08984 9ZM1.45348 8.0625H3.02166C3.74325 8.0625 4.34126 7.9233 4.8157 7.64489C5.29013 7.36648 5.64382 6.97017 5.87678 6.45597C6.10973 5.94176 6.22621 5.32955 6.22621 4.61932C6.22621 3.91477 6.11115 3.30824 5.88104 2.79972C5.65092 2.28835 5.30717 1.89631 4.84979 1.62358C4.3924 1.34801 3.8228 1.21023 3.14098 1.21023H1.45348V8.0625ZM8.96946 9H7.86151L11.0661 0.272727H12.157L15.3615 9H14.2536L11.6456 1.65341H11.5774L8.96946 9ZM9.37855 5.59091H13.8445V6.52841H9.37855V5.59091ZM23.6413 0.272727V9H22.6186L17.8629 2.14773H17.7777V9H16.7209V0.272727H17.7436L22.5163 7.14205H22.6016V0.272727H23.6413ZM26.8129 0.272727V9H25.756V0.272727H26.8129ZM28.9318 9V0.272727H34.1989V1.21023H29.9886V4.15909H33.9261V5.09659H29.9886V8.0625H34.267V9H28.9318ZM36.1037 9V0.272727H37.1605V8.0625H41.2173V9H36.1037ZM46.2287 9V0.272727H47.2855V4.15909H51.9389V0.272727H52.9957V9H51.9389V5.09659H47.2855V9H46.2287ZM61.1797 9H58.4865V0.272727H61.299C62.1456 0.272727 62.87 0.447443 63.4723 0.796875C64.0746 1.14347 64.5362 1.64205 64.8572 2.29261C65.1783 2.94034 65.3388 3.71591 65.3388 4.61932C65.3388 5.52841 65.1768 6.31108 64.853 6.96733C64.5291 7.62074 64.0575 8.12358 63.4382 8.47585C62.8189 8.82528 62.0661 9 61.1797 9ZM59.5433 8.0625H61.1115C61.8331 8.0625 62.4311 7.9233 62.9055 7.64489C63.38 7.36648 63.7337 6.97017 63.9666 6.45597C64.1996 5.94176 64.3161 5.32955 64.3161 4.61932C64.3161 3.91477 64.201 3.30824 63.9709 2.79972C63.7408 2.28835 63.397 1.89631 62.9396 1.62358C62.4822 1.34801 61.9126 1.21023 61.2308 1.21023H59.5433V8.0625ZM67.1115 9V0.272727H72.3786V1.21023H68.1683V4.15909H72.1058V5.09659H68.1683V8.0625H72.4467V9H67.1115ZM79.0561 2.45455C79.005 2.02273 78.7976 1.6875 78.4339 1.44886C78.0703 1.21023 77.6243 1.09091 77.0959 1.09091C76.7095 1.09091 76.3714 1.15341 76.0817 1.27841C75.7947 1.40341 75.5703 1.57528 75.4084 1.79403C75.2493 2.01278 75.1697 2.26136 75.1697 2.53977C75.1697 2.77273 75.2251 2.97301 75.3359 3.14062C75.4496 3.3054 75.5945 3.44318 75.7706 3.55398C75.9467 3.66193 76.1314 3.75142 76.3246 3.82244C76.5178 3.89062 76.6953 3.94602 76.8572 3.98864L77.7436 4.22727C77.9709 4.28693 78.2237 4.36932 78.5021 4.47443C78.7834 4.57955 79.0518 4.72301 79.3075 4.90483C79.5661 5.08381 79.7791 5.31392 79.9467 5.59517C80.1143 5.87642 80.1982 6.22159 80.1982 6.63068C80.1982 7.10227 80.0746 7.52841 79.8274 7.90909C79.5831 8.28977 79.2251 8.59233 78.7536 8.81676C78.2848 9.04119 77.7152 9.15341 77.0447 9.15341C76.4197 9.15341 75.8786 9.05256 75.4212 8.85085C74.9666 8.64915 74.6087 8.3679 74.3473 8.0071C74.0888 7.64631 73.9425 7.22727 73.9084 6.75H74.9993C75.0277 7.07955 75.1385 7.35227 75.3317 7.56818C75.5277 7.78125 75.7749 7.94034 76.0732 8.04545C76.3743 8.14773 76.6982 8.19886 77.0447 8.19886C77.4482 8.19886 77.8104 8.13352 78.1314 8.00284C78.4524 7.86932 78.7067 7.68466 78.8942 7.44886C79.0817 7.21023 79.1754 6.93182 79.1754 6.61364C79.1754 6.32386 79.0945 6.08807 78.9325 5.90625C78.7706 5.72443 78.5575 5.5767 78.2933 5.46307C78.0291 5.34943 77.7436 5.25 77.4368 5.16477L76.3629 4.85795C75.6811 4.66193 75.1413 4.3821 74.7436 4.01847C74.3459 3.65483 74.147 3.17898 74.147 2.59091C74.147 2.10227 74.2791 1.67614 74.5433 1.3125C74.8104 0.946023 75.1683 0.661932 75.6172 0.460227C76.0689 0.255682 76.5732 0.153409 77.13 0.153409C77.6925 0.153409 78.1925 0.254261 78.63 0.455966C79.0675 0.654829 79.4141 0.927556 79.6697 1.27415C79.9283 1.62074 80.0646 2.0142 80.0788 2.45455H79.0561ZM82.9925 0.272727V9H81.9357V0.272727H82.9925ZM91.0774 3C90.9837 2.71307 90.8601 2.45597 90.7067 2.22869C90.5561 1.99858 90.3757 1.80256 90.1655 1.64062C89.9581 1.47869 89.7223 1.35511 89.4581 1.26989C89.1939 1.18466 88.9041 1.14205 88.5888 1.14205C88.0717 1.14205 87.6016 1.27557 87.1783 1.54261C86.755 1.80966 86.4183 2.20312 86.1683 2.72301C85.9183 3.2429 85.7933 3.88068 85.7933 4.63636C85.7933 5.39205 85.9197 6.02983 86.1726 6.54972C86.4254 7.0696 86.7678 7.46307 87.1996 7.73011C87.6314 7.99716 88.1172 8.13068 88.657 8.13068C89.157 8.13068 89.5973 8.02415 89.978 7.81108C90.3615 7.59517 90.6598 7.29119 90.8729 6.89915C91.0888 6.50426 91.1967 6.03977 91.1967 5.50568L91.5206 5.57386H88.8956V4.63636H92.2195V5.57386C92.2195 6.29261 92.0661 6.91761 91.7592 7.44886C91.4553 7.98011 91.0348 8.39205 90.4979 8.68466C89.9638 8.97443 89.3501 9.11932 88.657 9.11932C87.8842 9.11932 87.2053 8.9375 86.62 8.57386C86.0376 8.21023 85.5831 7.69318 85.2564 7.02273C84.9325 6.35227 84.7706 5.55682 84.7706 4.63636C84.7706 3.94602 84.8629 3.32528 85.0476 2.77415C85.2351 2.22017 85.4993 1.74858 85.8402 1.35938C86.1811 0.97017 86.5845 0.671875 87.0504 0.464489C87.5163 0.257102 88.0291 0.153409 88.5888 0.153409C89.049 0.153409 89.478 0.223011 89.8757 0.362216C90.2763 0.498579 90.6328 0.693181 90.9453 0.946022C91.2607 1.19602 91.5234 1.49574 91.7337 1.84517C91.9439 2.19176 92.0888 2.5767 92.1683 3H91.0774ZM100.95 0.272727V9H99.9272L95.1715 2.14773H95.0863V9H94.0295V0.272727H95.0522L99.8249 7.14205H99.9102V0.272727H100.95ZM107.837 2.45455C107.786 2.02273 107.579 1.6875 107.215 1.44886C106.852 1.21023 106.406 1.09091 105.877 1.09091C105.491 1.09091 105.153 1.15341 104.863 1.27841C104.576 1.40341 104.352 1.57528 104.19 1.79403C104.031 2.01278 103.951 2.26136 103.951 2.53977C103.951 2.77273 104.006 2.97301 104.117 3.14062C104.231 3.3054 104.376 3.44318 104.552 3.55398C104.728 3.66193 104.913 3.75142 105.106 3.82244C105.299 3.89062 105.477 3.94602 105.638 3.98864L106.525 4.22727C106.752 4.28693 107.005 4.36932 107.283 4.47443C107.565 4.57955 107.833 4.72301 108.089 4.90483C108.347 5.08381 108.56 5.31392 108.728 5.59517C108.896 5.87642 108.979 6.22159 108.979 6.63068C108.979 7.10227 108.856 7.52841 108.609 7.90909C108.364 8.28977 108.006 8.59233 107.535 8.81676C107.066 9.04119 106.496 9.15341 105.826 9.15341C105.201 9.15341 104.66 9.05256 104.202 8.85085C103.748 8.64915 103.39 8.3679 103.129 8.0071C102.87 7.64631 102.724 7.22727 102.69 6.75H103.781C103.809 7.07955 103.92 7.35227 104.113 7.56818C104.309 7.78125 104.556 7.94034 104.854 8.04545C105.156 8.14773 105.479 8.19886 105.826 8.19886C106.229 8.19886 106.592 8.13352 106.913 8.00284C107.234 7.86932 107.488 7.68466 107.675 7.44886C107.863 7.21023 107.957 6.93182 107.957 6.61364C107.957 6.32386 107.876 6.08807 107.714 5.90625C107.552 5.72443 107.339 5.5767 107.075 5.46307C106.81 5.34943 106.525 5.25 106.218 5.16477L105.144 4.85795C104.462 4.66193 103.923 4.3821 103.525 4.01847C103.127 3.65483 102.928 3.17898 102.928 2.59091C102.928 2.10227 103.06 1.67614 103.325 1.3125C103.592 0.946023 103.95 0.661932 104.398 0.460227C104.85 0.255682 105.354 0.153409 105.911 0.153409C106.474 0.153409 106.974 0.254261 107.411 0.455966C107.849 0.654829 108.195 0.927556 108.451 1.27415C108.71 1.62074 108.846 2.0142 108.86 2.45455H107.837Z" fill="white"/>
</svg>
