<svg width="133" height="155" viewBox="0 0 133 155" fill="none" xmlns="http://www.w3.org/2000/svg">
<path d="M15.0898 136H12.3967V127.273H15.2092C16.0558 127.273 16.7802 127.447 17.3825 127.797C17.9847 128.143 18.4464 128.642 18.7674 129.293C19.0884 129.94 19.2489 130.716 19.2489 131.619C19.2489 132.528 19.087 133.311 18.7631 133.967C18.4393 134.621 17.9677 135.124 17.3484 135.476C16.729 135.825 15.9762 136 15.0898 136ZM13.4535 135.062H15.0217C15.7433 135.062 16.3413 134.923 16.8157 134.645C17.2901 134.366 17.6438 133.97 17.8768 133.456C18.1097 132.942 18.2262 132.33 18.2262 131.619C18.2262 130.915 18.1112 130.308 17.881 129.8C17.6509 129.288 17.3072 128.896 16.8498 128.624C16.3924 128.348 15.8228 128.21 15.141 128.21H13.4535V135.062ZM20.9695 136H19.8615L23.0661 127.273H24.157L27.3615 136H26.2536L23.6456 128.653H23.5774L20.9695 136ZM21.3786 132.591H25.8445V133.528H21.3786V132.591ZM35.6413 127.273V136H34.6186L29.8629 129.148H29.7777V136H28.7209V127.273H29.7436L34.5163 134.142H34.6016V127.273H35.6413ZM38.8129 127.273V136H37.756V127.273H38.8129ZM40.9318 136V127.273H46.1989V128.21H41.9886V131.159H45.9261V132.097H41.9886V135.062H46.267V136H40.9318ZM48.1037 136V127.273H49.1605V135.062H53.2173V136H48.1037ZM58.2287 136V127.273H59.2855V131.159H63.9389V127.273H64.9957V136H63.9389V132.097H59.2855V136H58.2287ZM73.1797 136H70.4865V127.273H73.299C74.1456 127.273 74.87 127.447 75.4723 127.797C76.0746 128.143 76.5362 128.642 76.8572 129.293C77.1783 129.94 77.3388 130.716 77.3388 131.619C77.3388 132.528 77.1768 133.311 76.853 133.967C76.5291 134.621 76.0575 135.124 75.4382 135.476C74.8189 135.825 74.0661 136 73.1797 136ZM71.5433 135.062H73.1115C73.8331 135.062 74.4311 134.923 74.9055 134.645C75.38 134.366 75.7337 133.97 75.9666 133.456C76.1996 132.942 76.3161 132.33 76.3161 131.619C76.3161 130.915 76.201 130.308 75.9709 129.8C75.7408 129.288 75.397 128.896 74.9396 128.624C74.4822 128.348 73.9126 128.21 73.2308 128.21H71.5433V135.062ZM79.1115 136V127.273H84.3786V128.21H80.1683V131.159H84.1058V132.097H80.1683V135.062H84.4467V136H79.1115ZM91.0561 129.455C91.005 129.023 90.7976 128.688 90.4339 128.449C90.0703 128.21 89.6243 128.091 89.0959 128.091C88.7095 128.091 88.3714 128.153 88.0817 128.278C87.7947 128.403 87.5703 128.575 87.4084 128.794C87.2493 129.013 87.1697 129.261 87.1697 129.54C87.1697 129.773 87.2251 129.973 87.3359 130.141C87.4496 130.305 87.5945 130.443 87.7706 130.554C87.9467 130.662 88.1314 130.751 88.3246 130.822C88.5178 130.891 88.6953 130.946 88.8572 130.989L89.7436 131.227C89.9709 131.287 90.2237 131.369 90.5021 131.474C90.7834 131.58 91.0518 131.723 91.3075 131.905C91.5661 132.084 91.7791 132.314 91.9467 132.595C92.1143 132.876 92.1982 133.222 92.1982 133.631C92.1982 134.102 92.0746 134.528 91.8274 134.909C91.5831 135.29 91.2251 135.592 90.7536 135.817C90.2848 136.041 89.7152 136.153 89.0447 136.153C88.4197 136.153 87.8786 136.053 87.4212 135.851C86.9666 135.649 86.6087 135.368 86.3473 135.007C86.0888 134.646 85.9425 134.227 85.9084 133.75H86.9993C87.0277 134.08 87.1385 134.352 87.3317 134.568C87.5277 134.781 87.7749 134.94 88.0732 135.045C88.3743 135.148 88.6982 135.199 89.0447 135.199C89.4482 135.199 89.8104 135.134 90.1314 135.003C90.4524 134.869 90.7067 134.685 90.8942 134.449C91.0817 134.21 91.1754 133.932 91.1754 133.614C91.1754 133.324 91.0945 133.088 90.9325 132.906C90.7706 132.724 90.5575 132.577 90.2933 132.463C90.0291 132.349 89.7436 132.25 89.4368 132.165L88.3629 131.858C87.6811 131.662 87.1413 131.382 86.7436 131.018C86.3459 130.655 86.147 130.179 86.147 129.591C86.147 129.102 86.2791 128.676 86.5433 128.312C86.8104 127.946 87.1683 127.662 87.6172 127.46C88.0689 127.256 88.5732 127.153 89.13 127.153C89.6925 127.153 90.1925 127.254 90.63 127.456C91.0675 127.655 91.4141 127.928 91.6697 128.274C91.9283 128.621 92.0646 129.014 92.0788 129.455H91.0561ZM94.9925 127.273V136H93.9357V127.273H94.9925ZM103.077 130C102.984 129.713 102.86 129.456 102.707 129.229C102.556 128.999 102.376 128.803 102.165 128.641C101.958 128.479 101.722 128.355 101.458 128.27C101.194 128.185 100.904 128.142 100.589 128.142C100.072 128.142 99.6016 128.276 99.1783 128.543C98.755 128.81 98.4183 129.203 98.1683 129.723C97.9183 130.243 97.7933 130.881 97.7933 131.636C97.7933 132.392 97.9197 133.03 98.1726 133.55C98.4254 134.07 98.7678 134.463 99.1996 134.73C99.6314 134.997 100.117 135.131 100.657 135.131C101.157 135.131 101.597 135.024 101.978 134.811C102.362 134.595 102.66 134.291 102.873 133.899C103.089 133.504 103.197 133.04 103.197 132.506L103.521 132.574H100.896V131.636H104.219V132.574C104.219 133.293 104.066 133.918 103.759 134.449C103.455 134.98 103.035 135.392 102.498 135.685C101.964 135.974 101.35 136.119 100.657 136.119C99.8842 136.119 99.2053 135.938 98.62 135.574C98.0376 135.21 97.5831 134.693 97.2564 134.023C96.9325 133.352 96.7706 132.557 96.7706 131.636C96.7706 130.946 96.8629 130.325 97.0476 129.774C97.2351 129.22 97.4993 128.749 97.8402 128.359C98.1811 127.97 98.5845 127.672 99.0504 127.464C99.5163 127.257 100.029 127.153 100.589 127.153C101.049 127.153 101.478 127.223 101.876 127.362C102.276 127.499 102.633 127.693 102.945 127.946C103.261 128.196 103.523 128.496 103.734 128.845C103.944 129.192 104.089 129.577 104.168 130H103.077ZM112.95 127.273V136H111.927L107.172 129.148H107.086V136H106.029V127.273H107.052L111.825 134.142H111.91V127.273H112.95ZM119.837 129.455C119.786 129.023 119.579 128.688 119.215 128.449C118.852 128.21 118.406 128.091 117.877 128.091C117.491 128.091 117.153 128.153 116.863 128.278C116.576 128.403 116.352 128.575 116.19 128.794C116.031 129.013 115.951 129.261 115.951 129.54C115.951 129.773 116.006 129.973 116.117 130.141C116.231 130.305 116.376 130.443 116.552 130.554C116.728 130.662 116.913 130.751 117.106 130.822C117.299 130.891 117.477 130.946 117.638 130.989L118.525 131.227C118.752 131.287 119.005 131.369 119.283 131.474C119.565 131.58 119.833 131.723 120.089 131.905C120.347 132.084 120.56 132.314 120.728 132.595C120.896 132.876 120.979 133.222 120.979 133.631C120.979 134.102 120.856 134.528 120.609 134.909C120.364 135.29 120.006 135.592 119.535 135.817C119.066 136.041 118.496 136.153 117.826 136.153C117.201 136.153 116.66 136.053 116.202 135.851C115.748 135.649 115.39 135.368 115.129 135.007C114.87 134.646 114.724 134.227 114.69 133.75H115.781C115.809 134.08 115.92 134.352 116.113 134.568C116.309 134.781 116.556 134.94 116.854 135.045C117.156 135.148 117.479 135.199 117.826 135.199C118.229 135.199 118.592 135.134 118.913 135.003C119.234 134.869 119.488 134.685 119.675 134.449C119.863 134.21 119.957 133.932 119.957 133.614C119.957 133.324 119.876 133.088 119.714 132.906C119.552 132.724 119.339 132.577 119.075 132.463C118.81 132.349 118.525 132.25 118.218 132.165L117.144 131.858C116.462 131.662 115.923 131.382 115.525 131.018C115.127 130.655 114.928 130.179 114.928 129.591C114.928 129.102 115.06 128.676 115.325 128.312C115.592 127.946 115.95 127.662 116.398 127.46C116.85 127.256 117.354 127.153 117.911 127.153C118.474 127.153 118.974 127.254 119.411 127.456C119.849 127.655 120.195 127.928 120.451 128.274C120.71 128.621 120.846 129.014 120.86 129.455H119.837Z" fill="black"/>
<path d="M93 124H121.727V30.9091H91.7273C82.697 30.9091 74.9697 32.7727 68.5455 36.5C62.1212 40.197 57.197 45.5151 53.7727 52.4545C50.3485 59.3636 48.6364 67.6364 48.6364 77.2727C48.6364 86.9697 50.3636 95.3182 53.8182 102.318C57.2727 109.288 62.303 114.652 68.9091 118.409C75.5151 122.136 83.5455 124 93 124ZM110.455 114H93.7273C86.0303 114 79.6515 112.515 74.5909 109.545C69.5303 106.576 65.7576 102.348 63.2727 96.8636C60.7879 91.3788 59.5455 84.8485 59.5455 77.2727C59.5455 69.7576 60.7727 63.2879 63.2273 57.8636C65.6818 52.4091 69.3485 48.2273 74.2273 45.3182C79.1061 42.3788 85.1818 40.9091 92.4545 40.9091H110.455V114Z" fill="black"/>
<path d="M31.2727 124V30.9091H42.5455V72.3636H92.1818V30.9091H103.455V124H92.1818V82.3636H42.5455V124H31.2727Z" fill="black"/>
<path d="M40 124H11.2727V30.9091H41.2727C50.303 30.9091 58.0303 32.7727 64.4545 36.5C70.8788 40.197 75.803 45.5151 79.2273 52.4545C82.6515 59.3636 84.3636 67.6364 84.3636 77.2727C84.3636 86.9697 82.6364 95.3182 79.1818 102.318C75.7273 109.288 70.697 114.652 64.0909 118.409C57.4849 122.136 49.4545 124 40 124ZM22.5455 114H39.2727C46.9697 114 53.3485 112.515 58.4091 109.545C63.4697 106.576 67.2424 102.348 69.7273 96.8636C72.2121 91.3788 73.4545 84.8485 73.4545 77.2727C73.4545 69.7576 72.2273 63.2879 69.7727 57.8636C67.3182 52.4091 63.6515 48.2273 58.7727 45.3182C53.8939 42.3788 47.8182 40.9091 40.5455 40.9091H22.5455V114Z" fill="black"/>
</svg>
