<svg width="133" height="155" viewBox="0 0 133 155" fill="none" xmlns="http://www.w3.org/2000/svg">
<path d="M93 124H121.727V30.9091H91.7273C82.697 30.9091 74.9697 32.7727 68.5455 36.5C62.1212 40.197 57.197 45.5151 53.7727 52.4545C50.3485 59.3636 48.6364 67.6364 48.6364 77.2727C48.6364 86.9697 50.3636 95.3182 53.8182 102.318C57.2727 109.288 62.303 114.652 68.9091 118.409C75.5151 122.136 83.5455 124 93 124ZM110.455 114H93.7273C86.0303 114 79.6515 112.515 74.5909 109.545C69.5303 106.576 65.7576 102.348 63.2727 96.8636C60.7879 91.3788 59.5455 84.8485 59.5455 77.2727C59.5455 69.7576 60.7727 63.2879 63.2273 57.8636C65.6818 52.4091 69.3485 48.2273 74.2273 45.3182C79.1061 42.3788 85.1818 40.9091 92.4545 40.9091H110.455V114Z" fill="black"/>
<path d="M31.2727 124V30.9091H42.5455V72.3636H92.1818V30.9091H103.455V124H92.1818V82.3636H42.5455V124H31.2727Z" fill="black"/>
<path d="M40 124H11.2727V30.9091H41.2727C50.303 30.9091 58.0303 32.7727 64.4545 36.5C70.8788 40.197 75.803 45.5151 79.2273 52.4545C82.6515 59.3636 84.3636 67.6364 84.3636 77.2727C84.3636 86.9697 82.6364 95.3182 79.1818 102.318C75.7273 109.288 70.697 114.652 64.0909 118.409C57.4849 122.136 49.4545 124 40 124ZM22.5455 114H39.2727C46.9697 114 53.3485 112.515 58.4091 109.545C63.4697 106.576 67.2424 102.348 69.7273 96.8636C72.2121 91.3788 73.4545 84.8485 73.4545 77.2727C73.4545 69.7576 72.2273 63.2879 69.7727 57.8636C67.3182 52.4091 63.6515 48.2273 58.7727 45.3182C53.8939 42.3788 47.8182 40.9091 40.5455 40.9091H22.5455V114Z" fill="black"/>
</svg>
